<?xml version="1.0"?>
<svg xmlns="http://www.w3.org/2000/svg" width="792" height="380" viewBox="0 0 792 380" fill="none">
<rect width="792" height="380" fill="white"/>
<rect x="152" y="40" width="200" height="220" rx="3" fill="#E9F8FF"/>
<path d="M221.183 154.5V146.31H218.411V145.316H225.145V146.31H222.359V154.5H221.183ZM226.03 154.5V147.696H226.982L227.08 148.928H227.122C227.598 148.074 228.298 147.528 229.054 147.528C229.362 147.528 229.572 147.57 229.782 147.668L229.53 148.662C229.334 148.606 229.18 148.578 228.914 148.578C228.34 148.578 227.654 148.984 227.192 150.132V154.5H226.03ZM232.123 154.668C230.989 154.668 230.135 153.968 230.135 152.736C230.135 151.224 231.395 150.496 234.307 150.174C234.293 149.32 234.013 148.494 232.907 148.494C232.123 148.494 231.409 148.844 230.877 149.194L230.429 148.41C231.059 147.99 232.011 147.528 233.103 147.528C234.755 147.528 235.469 148.634 235.469 150.314V154.5H234.517L234.405 153.688H234.363C233.719 154.234 232.977 154.668 232.123 154.668ZM232.445 153.716C233.103 153.716 233.649 153.422 234.307 152.848V151C232.011 151.266 231.269 151.784 231.269 152.666C231.269 153.422 231.787 153.716 232.445 153.716ZM237.61 154.5V147.696H238.772V154.5H237.61ZM238.198 146.296C237.75 146.296 237.428 146.002 237.428 145.54C237.428 145.092 237.75 144.784 238.198 144.784C238.646 144.784 238.968 145.092 238.968 145.54C238.968 146.002 238.646 146.296 238.198 146.296ZM241.069 154.5V147.696H242.021L242.119 148.676H242.161C242.805 148.032 243.505 147.528 244.443 147.528C245.885 147.528 246.529 148.452 246.529 150.188V154.5H245.367V150.342C245.367 149.068 244.975 148.536 244.079 148.536C243.393 148.536 242.903 148.886 242.231 149.572V154.5H241.069ZM248.725 154.5V147.696H249.887V154.5H248.725ZM249.313 146.296C248.865 146.296 248.543 146.002 248.543 145.54C248.543 145.092 248.865 144.784 249.313 144.784C249.761 144.784 250.083 145.092 250.083 145.54C250.083 146.002 249.761 146.296 249.313 146.296ZM252.184 154.5V147.696H253.136L253.234 148.676H253.276C253.92 148.032 254.62 147.528 255.558 147.528C257 147.528 257.644 148.452 257.644 150.188V154.5H256.482V150.342C256.482 149.068 256.09 148.536 255.194 148.536C254.508 148.536 254.018 148.886 253.346 149.572V154.5H252.184ZM262.136 157.636C260.47 157.636 259.322 156.978 259.322 155.802C259.322 155.228 259.7 154.682 260.316 154.262V154.206C259.98 153.996 259.714 153.632 259.714 153.1C259.714 152.526 260.106 152.078 260.456 151.84V151.784C260.008 151.42 259.574 150.762 259.574 149.95C259.574 148.466 260.75 147.528 262.136 147.528C262.514 147.528 262.85 147.598 263.102 147.696H265.468V148.592H264.082C264.404 148.9 264.628 149.404 264.628 149.978C264.628 151.434 263.522 152.344 262.136 152.344C261.8 152.344 261.436 152.26 261.128 152.106C260.876 152.316 260.694 152.54 260.694 152.918C260.694 153.338 260.974 153.646 261.884 153.646H263.2C264.782 153.646 265.58 154.15 265.58 155.27C265.58 156.544 264.25 157.636 262.136 157.636ZM262.136 151.56C262.92 151.56 263.578 150.944 263.578 149.95C263.578 148.97 262.934 148.368 262.136 148.368C261.338 148.368 260.694 148.956 260.694 149.95C260.694 150.944 261.352 151.56 262.136 151.56ZM262.304 156.824C263.592 156.824 264.446 156.152 264.446 155.452C264.446 154.822 263.97 154.612 263.074 154.612H261.912C261.646 154.612 261.324 154.584 261.03 154.5C260.54 154.85 260.33 155.256 260.33 155.648C260.33 156.376 261.072 156.824 262.304 156.824ZM271.489 154.668C270.495 154.668 269.585 154.304 268.955 153.688L269.487 153.016C270.075 153.506 270.691 153.758 271.531 153.758C272.427 153.758 272.861 153.296 272.861 152.708C272.861 152.008 272.105 151.714 271.335 151.434C270.313 151.07 269.333 150.58 269.333 149.46C269.333 148.368 270.201 147.528 271.685 147.528C272.539 147.528 273.267 147.85 273.799 148.298L273.267 148.97C272.791 148.62 272.301 148.424 271.699 148.424C270.831 148.424 270.453 148.9 270.453 149.404C270.453 150.02 271.041 150.272 271.895 150.566C272.959 150.944 273.981 151.406 273.981 152.638C273.981 153.744 273.099 154.668 271.489 154.668ZM278.321 154.668C276.501 154.668 275.073 153.352 275.073 151.098C275.073 148.886 276.571 147.528 278.125 147.528C279.861 147.528 280.855 148.76 280.855 150.72C280.855 150.972 280.841 151.182 280.799 151.406H276.221C276.319 152.806 277.173 153.73 278.461 153.73C279.119 153.73 279.693 153.548 280.169 153.226L280.575 153.968C279.987 154.388 279.259 154.668 278.321 154.668ZM276.221 150.51H279.819C279.819 149.166 279.189 148.452 278.153 148.452C277.201 148.452 276.361 149.208 276.221 150.51ZM284.527 154.668C283.071 154.668 282.581 153.744 282.581 152.386V148.634H281.573V147.766L282.637 147.696L282.777 145.512H283.743V147.696H285.591V148.634H283.743V152.414C283.743 153.24 284.023 153.716 284.793 153.716C285.045 153.716 285.297 153.674 285.577 153.548L285.815 154.374C285.451 154.542 284.989 154.668 284.527 154.668Z" fill="#333333"/>
<rect x="152" y="268" width="200" height="72" rx="3" fill="#E9F8FF"/>
<path d="M233.125 308.5V300.31H230.353V299.316H237.087V300.31H234.301V308.5H233.125ZM240.429 308.668C238.609 308.668 237.181 307.352 237.181 305.098C237.181 302.886 238.679 301.528 240.233 301.528C241.969 301.528 242.963 302.76 242.963 304.72C242.963 304.972 242.949 305.182 242.907 305.406H238.329C238.427 306.806 239.281 307.73 240.569 307.73C241.227 307.73 241.801 307.548 242.277 307.226L242.683 307.968C242.095 308.388 241.367 308.668 240.429 308.668ZM238.329 304.51H241.927C241.927 303.166 241.297 302.452 240.261 302.452C239.309 302.452 238.469 303.208 238.329 304.51ZM246.408 308.668C245.414 308.668 244.504 308.304 243.874 307.688L244.406 307.016C244.994 307.506 245.61 307.758 246.45 307.758C247.346 307.758 247.78 307.296 247.78 306.708C247.78 306.008 247.024 305.714 246.254 305.434C245.232 305.07 244.252 304.58 244.252 303.46C244.252 302.368 245.12 301.528 246.604 301.528C247.458 301.528 248.186 301.85 248.718 302.298L248.186 302.97C247.71 302.62 247.22 302.424 246.618 302.424C245.75 302.424 245.372 302.9 245.372 303.404C245.372 304.02 245.96 304.272 246.814 304.566C247.878 304.944 248.9 305.406 248.9 306.638C248.9 307.744 248.018 308.668 246.408 308.668ZM252.364 308.668C250.908 308.668 250.418 307.744 250.418 306.386V302.634H249.41V301.766L250.474 301.696L250.614 299.512H251.58V301.696H253.428V302.634H251.58V306.414C251.58 307.24 251.86 307.716 252.63 307.716C252.882 307.716 253.134 307.674 253.414 307.548L253.652 308.374C253.288 308.542 252.826 308.668 252.364 308.668ZM259.547 308.668C258.553 308.668 257.643 308.304 257.013 307.688L257.545 307.016C258.133 307.506 258.749 307.758 259.589 307.758C260.485 307.758 260.919 307.296 260.919 306.708C260.919 306.008 260.163 305.714 259.393 305.434C258.371 305.07 257.391 304.58 257.391 303.46C257.391 302.368 258.259 301.528 259.743 301.528C260.597 301.528 261.325 301.85 261.857 302.298L261.325 302.97C260.849 302.62 260.359 302.424 259.757 302.424C258.889 302.424 258.511 302.9 258.511 303.404C258.511 304.02 259.099 304.272 259.953 304.566C261.017 304.944 262.039 305.406 262.039 306.638C262.039 307.744 261.157 308.668 259.547 308.668ZM266.378 308.668C264.558 308.668 263.13 307.352 263.13 305.098C263.13 302.886 264.628 301.528 266.182 301.528C267.918 301.528 268.912 302.76 268.912 304.72C268.912 304.972 268.898 305.182 268.856 305.406H264.278C264.376 306.806 265.23 307.73 266.518 307.73C267.176 307.73 267.75 307.548 268.226 307.226L268.632 307.968C268.044 308.388 267.316 308.668 266.378 308.668ZM264.278 304.51H267.876C267.876 303.166 267.246 302.452 266.21 302.452C265.258 302.452 264.418 303.208 264.278 304.51ZM272.585 308.668C271.129 308.668 270.639 307.744 270.639 306.386V302.634H269.631V301.766L270.695 301.696L270.835 299.512H271.801V301.696H273.649V302.634H271.801V306.414C271.801 307.24 272.081 307.716 272.851 307.716C273.103 307.716 273.355 307.674 273.635 307.548L273.873 308.374C273.509 308.542 273.047 308.668 272.585 308.668Z" fill="#333333"/>
<path d="M352 150H481" stroke="#019CB2" stroke-width="2"/>
<path d="M486 149.999C486 149.999 476 155 476 155L477.999 149.999L476 145C476 145 486 149.999 486 149.999Z" fill="#019CB2"/>
<path d="M352 304H481" stroke="#019CB2" stroke-width="2"/>
<path d="M486 303.999C486 303.999 476 309 476 309L477.999 303.999L476 299C476 299 486 303.999 486 303.999Z" fill="#019CB2"/>
<rect x="486" y="40" width="154" height="300" rx="3" fill="#E9F8FF"/>
<path d="M535.221 194.5V185.316H536.691L538.427 190.23C538.651 190.874 538.847 191.462 539.043 192.148H539.099C539.309 191.462 539.477 190.874 539.701 190.23L541.437 185.316H542.907V194.5H541.801V189.432C541.801 188.62 541.899 187.486 541.969 186.688H541.913L541.199 188.83L539.477 193.576H538.623L536.915 188.83L536.187 186.688H536.131C536.201 187.486 536.299 188.62 536.299 189.432V194.5H535.221ZM545.406 194.5V185.316H546.582V193.506H550.586V194.5H545.406ZM550.777 191.434V190.538H553.997V191.434H550.777ZM555.699 194.5V187.696H556.651L556.749 188.676H556.791C557.393 188.032 558.093 187.528 558.905 187.528C559.955 187.528 560.515 188.018 560.795 188.816C561.495 188.06 562.209 187.528 563.035 187.528C564.435 187.528 565.107 188.452 565.107 190.188V194.5H563.945V190.342C563.945 189.068 563.539 188.536 562.685 188.536C562.153 188.536 561.607 188.872 560.977 189.572V194.5H559.815V190.342C559.815 189.068 559.423 188.536 558.555 188.536C558.051 188.536 557.491 188.872 556.861 189.572V194.5H555.699ZM569.952 194.668C568.286 194.668 566.802 193.366 566.802 191.112C566.802 188.83 568.286 187.528 569.952 187.528C571.618 187.528 573.116 188.83 573.116 191.112C573.116 193.366 571.618 194.668 569.952 194.668ZM569.952 193.702C571.128 193.702 571.912 192.666 571.912 191.112C571.912 189.544 571.128 188.494 569.952 188.494C568.79 188.494 568.006 189.544 568.006 191.112C568.006 192.666 568.79 193.702 569.952 193.702ZM577.218 194.668C575.51 194.668 574.404 193.38 574.404 191.112C574.404 188.9 575.804 187.528 577.358 187.528C578.142 187.528 578.66 187.822 579.262 188.312L579.206 187.15V184.532H580.368V194.5H579.416L579.318 193.702H579.276C578.744 194.22 578.016 194.668 577.218 194.668ZM577.47 193.688C578.1 193.688 578.646 193.38 579.206 192.764V189.208C578.632 188.69 578.114 188.508 577.554 188.508C576.476 188.508 575.608 189.544 575.608 191.098C575.608 192.722 576.28 193.688 577.47 193.688ZM585.404 194.668C583.584 194.668 582.156 193.352 582.156 191.098C582.156 188.886 583.654 187.528 585.208 187.528C586.944 187.528 587.938 188.76 587.938 190.72C587.938 190.972 587.924 191.182 587.882 191.406H583.304C583.402 192.806 584.256 193.73 585.544 193.73C586.202 193.73 586.776 193.548 587.252 193.226L587.658 193.968C587.07 194.388 586.342 194.668 585.404 194.668ZM583.304 190.51H586.902C586.902 189.166 586.272 188.452 585.236 188.452C584.284 188.452 583.444 189.208 583.304 190.51ZM590.823 194.668C589.955 194.668 589.605 194.108 589.605 193.128V184.532H590.767V193.212C590.767 193.576 590.921 193.702 591.103 193.702C591.173 193.702 591.229 193.702 591.341 193.674L591.495 194.542C591.327 194.626 591.117 194.668 590.823 194.668Z" fill="#333333"/>
<path d="M398.164 140V131.81H395.392V130.816H402.126V131.81H399.34V140H398.164ZM403.011 140V133.196H403.963L404.061 134.428H404.103C404.579 133.574 405.279 133.028 406.035 133.028C406.343 133.028 406.553 133.07 406.763 133.168L406.511 134.162C406.315 134.106 406.161 134.078 405.895 134.078C405.321 134.078 404.635 134.484 404.173 135.632V140H403.011ZM409.105 140.168C407.971 140.168 407.117 139.468 407.117 138.236C407.117 136.724 408.377 135.996 411.289 135.674C411.275 134.82 410.995 133.994 409.889 133.994C409.105 133.994 408.391 134.344 407.859 134.694L407.411 133.91C408.041 133.49 408.993 133.028 410.085 133.028C411.737 133.028 412.451 134.134 412.451 135.814V140H411.499L411.387 139.188H411.345C410.701 139.734 409.959 140.168 409.105 140.168ZM409.427 139.216C410.085 139.216 410.631 138.922 411.289 138.348V136.5C408.993 136.766 408.251 137.284 408.251 138.166C408.251 138.922 408.769 139.216 409.427 139.216ZM414.591 140V133.196H415.753V140H414.591ZM415.179 131.796C414.731 131.796 414.409 131.502 414.409 131.04C414.409 130.592 414.731 130.284 415.179 130.284C415.627 130.284 415.949 130.592 415.949 131.04C415.949 131.502 415.627 131.796 415.179 131.796ZM418.05 140V133.196H419.002L419.1 134.176H419.142C419.786 133.532 420.486 133.028 421.424 133.028C422.866 133.028 423.51 133.952 423.51 135.688V140H422.348V135.842C422.348 134.568 421.956 134.036 421.06 134.036C420.374 134.036 419.884 134.386 419.212 135.072V140H418.05ZM425.707 140V133.196H426.869V140H425.707ZM426.295 131.796C425.847 131.796 425.525 131.502 425.525 131.04C425.525 130.592 425.847 130.284 426.295 130.284C426.743 130.284 427.065 130.592 427.065 131.04C427.065 131.502 426.743 131.796 426.295 131.796ZM429.166 140V133.196H430.118L430.216 134.176H430.258C430.902 133.532 431.602 133.028 432.54 133.028C433.982 133.028 434.626 133.952 434.626 135.688V140H433.464V135.842C433.464 134.568 433.072 134.036 432.176 134.036C431.49 134.036 431 134.386 430.328 135.072V140H429.166ZM439.118 143.136C437.452 143.136 436.304 142.478 436.304 141.302C436.304 140.728 436.682 140.182 437.298 139.762V139.706C436.962 139.496 436.696 139.132 436.696 138.6C436.696 138.026 437.088 137.578 437.438 137.34V137.284C436.99 136.92 436.556 136.262 436.556 135.45C436.556 133.966 437.732 133.028 439.118 133.028C439.496 133.028 439.832 133.098 440.084 133.196H442.45V134.092H441.064C441.386 134.4 441.61 134.904 441.61 135.478C441.61 136.934 440.504 137.844 439.118 137.844C438.782 137.844 438.418 137.76 438.11 137.606C437.858 137.816 437.676 138.04 437.676 138.418C437.676 138.838 437.956 139.146 438.866 139.146H440.182C441.764 139.146 442.562 139.65 442.562 140.77C442.562 142.044 441.232 143.136 439.118 143.136ZM439.118 137.06C439.902 137.06 440.56 136.444 440.56 135.45C440.56 134.47 439.916 133.868 439.118 133.868C438.32 133.868 437.676 134.456 437.676 135.45C437.676 136.444 438.334 137.06 439.118 137.06ZM439.286 142.324C440.574 142.324 441.428 141.652 441.428 140.952C441.428 140.322 440.952 140.112 440.056 140.112H438.894C438.628 140.112 438.306 140.084 438.012 140C437.522 140.35 437.312 140.756 437.312 141.148C437.312 141.876 438.054 142.324 439.286 142.324Z" fill="#333333"/>
<path d="M401.164 294V285.81H398.392V284.816H405.126V285.81H402.34V294H401.164ZM408.468 294.168C406.648 294.168 405.22 292.852 405.22 290.598C405.22 288.386 406.718 287.028 408.272 287.028C410.008 287.028 411.002 288.26 411.002 290.22C411.002 290.472 410.988 290.682 410.946 290.906H406.368C406.466 292.306 407.32 293.23 408.608 293.23C409.266 293.23 409.84 293.048 410.316 292.726L410.722 293.468C410.134 293.888 409.406 294.168 408.468 294.168ZM406.368 290.01H409.966C409.966 288.666 409.336 287.952 408.3 287.952C407.348 287.952 406.508 288.708 406.368 290.01ZM414.447 294.168C413.453 294.168 412.543 293.804 411.913 293.188L412.445 292.516C413.033 293.006 413.649 293.258 414.489 293.258C415.385 293.258 415.819 292.796 415.819 292.208C415.819 291.508 415.063 291.214 414.293 290.934C413.271 290.57 412.291 290.08 412.291 288.96C412.291 287.868 413.159 287.028 414.643 287.028C415.497 287.028 416.225 287.35 416.757 287.798L416.225 288.47C415.749 288.12 415.259 287.924 414.657 287.924C413.789 287.924 413.411 288.4 413.411 288.904C413.411 289.52 413.999 289.772 414.853 290.066C415.917 290.444 416.939 290.906 416.939 292.138C416.939 293.244 416.057 294.168 414.447 294.168ZM420.403 294.168C418.947 294.168 418.457 293.244 418.457 291.886V288.134H417.449V287.266L418.513 287.196L418.653 285.012H419.619V287.196H421.467V288.134H419.619V291.914C419.619 292.74 419.899 293.216 420.669 293.216C420.921 293.216 421.173 293.174 421.453 293.048L421.691 293.874C421.327 294.042 420.865 294.168 420.403 294.168ZM423.005 294V287.196H424.167V294H423.005ZM423.593 285.796C423.145 285.796 422.823 285.502 422.823 285.04C422.823 284.592 423.145 284.284 423.593 284.284C424.041 284.284 424.363 284.592 424.363 285.04C424.363 285.502 424.041 285.796 423.593 285.796ZM426.464 294V287.196H427.416L427.514 288.176H427.556C428.2 287.532 428.9 287.028 429.838 287.028C431.28 287.028 431.924 287.952 431.924 289.688V294H430.762V289.842C430.762 288.568 430.37 288.036 429.474 288.036C428.788 288.036 428.298 288.386 427.626 289.072V294H426.464ZM436.417 297.136C434.751 297.136 433.603 296.478 433.603 295.302C433.603 294.728 433.981 294.182 434.597 293.762V293.706C434.261 293.496 433.995 293.132 433.995 292.6C433.995 292.026 434.387 291.578 434.737 291.34V291.284C434.289 290.92 433.855 290.262 433.855 289.45C433.855 287.966 435.031 287.028 436.417 287.028C436.795 287.028 437.131 287.098 437.383 287.196H439.749V288.092H438.363C438.685 288.4 438.909 288.904 438.909 289.478C438.909 290.934 437.803 291.844 436.417 291.844C436.081 291.844 435.717 291.76 435.409 291.606C435.157 291.816 434.975 292.04 434.975 292.418C434.975 292.838 435.255 293.146 436.165 293.146H437.481C439.063 293.146 439.861 293.65 439.861 294.77C439.861 296.044 438.531 297.136 436.417 297.136ZM436.417 291.06C437.201 291.06 437.859 290.444 437.859 289.45C437.859 288.47 437.215 287.868 436.417 287.868C435.619 287.868 434.975 288.456 434.975 289.45C434.975 290.444 435.633 291.06 436.417 291.06ZM436.585 296.324C437.873 296.324 438.727 295.652 438.727 294.952C438.727 294.322 438.251 294.112 437.355 294.112H436.193C435.927 294.112 435.605 294.084 435.311 294C434.821 294.35 434.611 294.756 434.611 295.148C434.611 295.876 435.353 296.324 436.585 296.324Z" fill="#333333"/>
<path d="M252 260L252 236" stroke="#E31B1B" stroke-width="2"/>
<path d="M251.999 231C251.999 231 257 241 257 241L251.999 239.001L247 241C247 241 251.999 231 251.999 231Z" fill="#E31B1B"/>
<path d="M218 260L218 236" stroke="#E31B1B" stroke-width="2"/>
<path d="M217.999 231C217.999 231 223 241 223 241L217.999 239.001L213 241C213 241 217.999 231 217.999 231Z" fill="#E31B1B"/>
<path d="M286 260L286 236" stroke="#E31B1B" stroke-width="2"/>
<path d="M285.999 231C285.999 231 291 241 291 241L285.999 239.001L281 241C281 241 285.999 231 285.999 231Z" fill="#E31B1B"/>
<path d="M252 260V268" stroke="#019CB2" stroke-width="2"/>
<path d="M218 260V268" stroke="#019CB2" stroke-width="2"/>
<path d="M286 260V268" stroke="#019CB2" stroke-width="2"/>
</svg>
