<?xml version="1.0"?>
<svg xmlns="http://www.w3.org/2000/svg" width="792" height="490" viewBox="0 0 792 490" fill="none">
<rect width="792" height="490" fill="white"/>
<rect x="30" y="110" width="100" height="340" rx="3" fill="#E9F8FF"/>
<path d="M46.9683 275.668C44.6583 275.668 43.0483 273.82 43.0483 270.866C43.0483 267.926 44.6583 266.148 46.9683 266.148C49.2783 266.148 50.9023 267.94 50.9023 270.866C50.9023 273.82 49.2783 275.668 46.9683 275.668ZM46.9683 274.632C48.6063 274.632 49.6843 273.162 49.6843 270.866C49.6843 268.584 48.6063 267.184 46.9683 267.184C45.3303 267.184 44.2663 268.584 44.2663 270.866C44.2663 273.162 45.3303 274.632 46.9683 274.632ZM52.7652 275.5V268.696H53.7172L53.8152 269.928H53.8572C54.3332 269.074 55.0332 268.528 55.7892 268.528C56.0972 268.528 56.3072 268.57 56.5172 268.668L56.2652 269.662C56.0692 269.606 55.9152 269.578 55.6492 269.578C55.0752 269.578 54.3892 269.984 53.9272 271.132V275.5H52.7652ZM57.6324 275.5V268.696H58.7944V275.5H57.6324ZM58.2204 267.296C57.7724 267.296 57.4504 267.002 57.4504 266.54C57.4504 266.092 57.7724 265.784 58.2204 265.784C58.6684 265.784 58.9904 266.092 58.9904 266.54C58.9904 267.002 58.6684 267.296 58.2204 267.296ZM63.3874 278.636C61.7214 278.636 60.5734 277.978 60.5734 276.802C60.5734 276.228 60.9514 275.682 61.5674 275.262V275.206C61.2314 274.996 60.9654 274.632 60.9654 274.1C60.9654 273.526 61.3574 273.078 61.7074 272.84V272.784C61.2594 272.42 60.8254 271.762 60.8254 270.95C60.8254 269.466 62.0014 268.528 63.3874 268.528C63.7654 268.528 64.1014 268.598 64.3534 268.696H66.7194V269.592H65.3334C65.6554 269.9 65.8794 270.404 65.8794 270.978C65.8794 272.434 64.7734 273.344 63.3874 273.344C63.0514 273.344 62.6874 273.26 62.3794 273.106C62.1274 273.316 61.9454 273.54 61.9454 273.918C61.9454 274.338 62.2254 274.646 63.1354 274.646H64.4514C66.0334 274.646 66.8314 275.15 66.8314 276.27C66.8314 277.544 65.5014 278.636 63.3874 278.636ZM63.3874 272.56C64.1714 272.56 64.8294 271.944 64.8294 270.95C64.8294 269.97 64.1854 269.368 63.3874 269.368C62.5894 269.368 61.9454 269.956 61.9454 270.95C61.9454 271.944 62.6034 272.56 63.3874 272.56ZM63.5554 277.824C64.8434 277.824 65.6974 277.152 65.6974 276.452C65.6974 275.822 65.2214 275.612 64.3254 275.612H63.1634C62.8974 275.612 62.5754 275.584 62.2814 275.5C61.7914 275.85 61.5814 276.256 61.5814 276.648C61.5814 277.376 62.3234 277.824 63.5554 277.824ZM68.1597 275.5V268.696H69.3217V275.5H68.1597ZM68.7477 267.296C68.2997 267.296 67.9777 267.002 67.9777 266.54C67.9777 266.092 68.2997 265.784 68.7477 265.784C69.1957 265.784 69.5177 266.092 69.5177 266.54C69.5177 267.002 69.1957 267.296 68.7477 267.296ZM71.6187 275.5V268.696H72.5707L72.6687 269.676H72.7107C73.3547 269.032 74.0547 268.528 74.9927 268.528C76.4347 268.528 77.0787 269.452 77.0787 271.188V275.5H75.9167V271.342C75.9167 270.068 75.5247 269.536 74.6287 269.536C73.9427 269.536 73.4527 269.886 72.7807 270.572V275.5H71.6187ZM80.843 275.668C79.709 275.668 78.855 274.968 78.855 273.736C78.855 272.224 80.115 271.496 83.027 271.174C83.013 270.32 82.733 269.494 81.627 269.494C80.843 269.494 80.129 269.844 79.597 270.194L79.149 269.41C79.779 268.99 80.731 268.528 81.823 268.528C83.475 268.528 84.189 269.634 84.189 271.314V275.5H83.237L83.125 274.688H83.083C82.439 275.234 81.697 275.668 80.843 275.668ZM81.165 274.716C81.823 274.716 82.369 274.422 83.027 273.848V272C80.731 272.266 79.989 272.784 79.989 273.666C79.989 274.422 80.507 274.716 81.165 274.716ZM87.5476 275.668C86.6796 275.668 86.3296 275.108 86.3296 274.128V265.532H87.4916V274.212C87.4916 274.576 87.6456 274.702 87.8276 274.702C87.8976 274.702 87.9536 274.702 88.0656 274.674L88.2196 275.542C88.0516 275.626 87.8416 275.668 87.5476 275.668ZM95.0247 275.668C93.3167 275.668 92.2107 274.38 92.2107 272.112C92.2107 269.9 93.6107 268.528 95.1647 268.528C95.9487 268.528 96.4667 268.822 97.0687 269.312L97.0127 268.15V265.532H98.1747V275.5H97.2227L97.1247 274.702H97.0827C96.5507 275.22 95.8227 275.668 95.0247 275.668ZM95.2767 274.688C95.9067 274.688 96.4527 274.38 97.0127 273.764V270.208C96.4387 269.69 95.9207 269.508 95.3607 269.508C94.2827 269.508 93.4147 270.544 93.4147 272.098C93.4147 273.722 94.0867 274.688 95.2767 274.688ZM102.034 275.668C100.9 275.668 100.046 274.968 100.046 273.736C100.046 272.224 101.306 271.496 104.218 271.174C104.204 270.32 103.924 269.494 102.818 269.494C102.034 269.494 101.32 269.844 100.788 270.194L100.34 269.41C100.97 268.99 101.922 268.528 103.014 268.528C104.666 268.528 105.38 269.634 105.38 271.314V275.5H104.428L104.316 274.688H104.274C103.63 275.234 102.888 275.668 102.034 275.668ZM102.356 274.716C103.014 274.716 103.56 274.422 104.218 273.848V272C101.922 272.266 101.18 272.784 101.18 273.666C101.18 274.422 101.698 274.716 102.356 274.716ZM109.472 275.668C108.016 275.668 107.526 274.744 107.526 273.386V269.634H106.518V268.766L107.582 268.696L107.722 266.512H108.688V268.696H110.536V269.634H108.688V273.414C108.688 274.24 108.968 274.716 109.738 274.716C109.99 274.716 110.242 274.674 110.522 274.548L110.76 275.374C110.396 275.542 109.934 275.668 109.472 275.668ZM113.341 275.668C112.207 275.668 111.353 274.968 111.353 273.736C111.353 272.224 112.613 271.496 115.525 271.174C115.511 270.32 115.231 269.494 114.125 269.494C113.341 269.494 112.627 269.844 112.095 270.194L111.647 269.41C112.277 268.99 113.229 268.528 114.321 268.528C115.973 268.528 116.687 269.634 116.687 271.314V275.5H115.735L115.623 274.688H115.581C114.937 275.234 114.195 275.668 113.341 275.668ZM113.663 274.716C114.321 274.716 114.867 274.422 115.525 273.848V272C113.229 272.266 112.487 272.784 112.487 273.666C112.487 274.422 113.005 274.716 113.663 274.716ZM74.217 293.668C73.223 293.668 72.313 293.304 71.683 292.688L72.215 292.016C72.803 292.506 73.419 292.758 74.259 292.758C75.155 292.758 75.589 292.296 75.589 291.708C75.589 291.008 74.833 290.714 74.063 290.434C73.041 290.07 72.061 289.58 72.061 288.46C72.061 287.368 72.929 286.528 74.413 286.528C75.267 286.528 75.995 286.85 76.527 287.298L75.995 287.97C75.519 287.62 75.029 287.424 74.427 287.424C73.559 287.424 73.181 287.9 73.181 288.404C73.181 289.02 73.769 289.272 74.623 289.566C75.687 289.944 76.709 290.406 76.709 291.638C76.709 292.744 75.827 293.668 74.217 293.668ZM81.0483 293.668C79.2283 293.668 77.8003 292.352 77.8003 290.098C77.8003 287.886 79.2983 286.528 80.8522 286.528C82.5883 286.528 83.5823 287.76 83.5823 289.72C83.5823 289.972 83.5683 290.182 83.5263 290.406H78.9483C79.0463 291.806 79.9003 292.73 81.1883 292.73C81.8463 292.73 82.4203 292.548 82.8963 292.226L83.3023 292.968C82.7143 293.388 81.9863 293.668 81.0483 293.668ZM78.9483 289.51H82.5463C82.5463 288.166 81.9163 287.452 80.8803 287.452C79.9283 287.452 79.0883 288.208 78.9483 289.51ZM87.2548 293.668C85.7988 293.668 85.3088 292.744 85.3088 291.386V287.634H84.3008V286.766L85.3648 286.696L85.5048 284.512H86.4708V286.696H88.3188V287.634H86.4708V291.414C86.4708 292.24 86.7508 292.716 87.5208 292.716C87.7728 292.716 88.0248 292.674 88.3048 292.548L88.5428 293.374C88.1788 293.542 87.7168 293.668 87.2548 293.668Z" fill="#333333"/>
<rect x="222" y="110" width="132" height="196" rx="3" fill="#E9F8FF"/>
<path d="M257.183 212.5V204.31H254.411V203.316H261.145V204.31H258.359V212.5H257.183ZM262.03 212.5V205.696H262.982L263.08 206.928H263.122C263.598 206.074 264.298 205.528 265.054 205.528C265.362 205.528 265.572 205.57 265.782 205.668L265.53 206.662C265.334 206.606 265.18 206.578 264.914 206.578C264.34 206.578 263.654 206.984 263.192 208.132V212.5H262.03ZM268.123 212.668C266.989 212.668 266.135 211.968 266.135 210.736C266.135 209.224 267.395 208.496 270.307 208.174C270.293 207.32 270.013 206.494 268.907 206.494C268.123 206.494 267.409 206.844 266.877 207.194L266.429 206.41C267.059 205.99 268.011 205.528 269.103 205.528C270.755 205.528 271.469 206.634 271.469 208.314V212.5H270.517L270.405 211.688H270.363C269.719 212.234 268.977 212.668 268.123 212.668ZM268.445 211.716C269.103 211.716 269.649 211.422 270.307 210.848V209C268.011 209.266 267.269 209.784 267.269 210.666C267.269 211.422 267.787 211.716 268.445 211.716ZM273.61 212.5V205.696H274.772V212.5H273.61ZM274.198 204.296C273.75 204.296 273.428 204.002 273.428 203.54C273.428 203.092 273.75 202.784 274.198 202.784C274.646 202.784 274.968 203.092 274.968 203.54C274.968 204.002 274.646 204.296 274.198 204.296ZM277.069 212.5V205.696H278.021L278.119 206.676H278.161C278.805 206.032 279.505 205.528 280.443 205.528C281.885 205.528 282.529 206.452 282.529 208.188V212.5H281.367V208.342C281.367 207.068 280.975 206.536 280.079 206.536C279.393 206.536 278.903 206.886 278.231 207.572V212.5H277.069ZM284.725 212.5V205.696H285.887V212.5H284.725ZM285.313 204.296C284.865 204.296 284.543 204.002 284.543 203.54C284.543 203.092 284.865 202.784 285.313 202.784C285.761 202.784 286.083 203.092 286.083 203.54C286.083 204.002 285.761 204.296 285.313 204.296ZM288.184 212.5V205.696H289.136L289.234 206.676H289.276C289.92 206.032 290.62 205.528 291.558 205.528C293 205.528 293.644 206.452 293.644 208.188V212.5H292.482V208.342C292.482 207.068 292.09 206.536 291.194 206.536C290.508 206.536 290.018 206.886 289.346 207.572V212.5H288.184ZM298.136 215.636C296.47 215.636 295.322 214.978 295.322 213.802C295.322 213.228 295.7 212.682 296.316 212.262V212.206C295.98 211.996 295.714 211.632 295.714 211.1C295.714 210.526 296.106 210.078 296.456 209.84V209.784C296.008 209.42 295.574 208.762 295.574 207.95C295.574 206.466 296.75 205.528 298.136 205.528C298.514 205.528 298.85 205.598 299.102 205.696H301.468V206.592H300.082C300.404 206.9 300.628 207.404 300.628 207.978C300.628 209.434 299.522 210.344 298.136 210.344C297.8 210.344 297.436 210.26 297.128 210.106C296.876 210.316 296.694 210.54 296.694 210.918C296.694 211.338 296.974 211.646 297.884 211.646H299.2C300.782 211.646 301.58 212.15 301.58 213.27C301.58 214.544 300.25 215.636 298.136 215.636ZM298.136 209.56C298.92 209.56 299.578 208.944 299.578 207.95C299.578 206.97 298.934 206.368 298.136 206.368C297.338 206.368 296.694 206.956 296.694 207.95C296.694 208.944 297.352 209.56 298.136 209.56ZM298.304 214.824C299.592 214.824 300.446 214.152 300.446 213.452C300.446 212.822 299.97 212.612 299.074 212.612H297.912C297.646 212.612 297.324 212.584 297.03 212.5C296.54 212.85 296.33 213.256 296.33 213.648C296.33 214.376 297.072 214.824 298.304 214.824ZM307.489 212.668C306.495 212.668 305.585 212.304 304.955 211.688L305.487 211.016C306.075 211.506 306.691 211.758 307.531 211.758C308.427 211.758 308.861 211.296 308.861 210.708C308.861 210.008 308.105 209.714 307.335 209.434C306.313 209.07 305.333 208.58 305.333 207.46C305.333 206.368 306.201 205.528 307.685 205.528C308.539 205.528 309.267 205.85 309.799 206.298L309.267 206.97C308.791 206.62 308.301 206.424 307.699 206.424C306.831 206.424 306.453 206.9 306.453 207.404C306.453 208.02 307.041 208.272 307.895 208.566C308.959 208.944 309.981 209.406 309.981 210.638C309.981 211.744 309.099 212.668 307.489 212.668ZM314.321 212.668C312.501 212.668 311.073 211.352 311.073 209.098C311.073 206.886 312.571 205.528 314.125 205.528C315.861 205.528 316.855 206.76 316.855 208.72C316.855 208.972 316.841 209.182 316.799 209.406H312.221C312.319 210.806 313.173 211.73 314.461 211.73C315.119 211.73 315.693 211.548 316.169 211.226L316.575 211.968C315.987 212.388 315.259 212.668 314.321 212.668ZM312.221 208.51H315.819C315.819 207.166 315.189 206.452 314.153 206.452C313.201 206.452 312.361 207.208 312.221 208.51ZM320.527 212.668C319.071 212.668 318.581 211.744 318.581 210.386V206.634H317.573V205.766L318.637 205.696L318.777 203.512H319.743V205.696H321.591V206.634H319.743V210.414C319.743 211.24 320.023 211.716 320.793 211.716C321.045 211.716 321.297 211.674 321.577 211.548L321.815 212.374C321.451 212.542 320.989 212.668 320.527 212.668Z" fill="#333333"/>
<rect x="446" y="110" width="124" height="268" rx="3" fill="#E9F8FF"/>
<path d="M469.673 239.5V230.316H472.291C474.349 230.316 475.749 231.002 475.749 233.018C475.749 234.964 474.363 235.86 472.347 235.86H470.849V239.5H469.673ZM470.849 234.908H472.207C473.803 234.908 474.573 234.32 474.573 233.018C474.573 231.702 473.761 231.268 472.151 231.268H470.849V234.908ZM477.504 239.5V232.696H478.456L478.554 233.928H478.596C479.072 233.074 479.772 232.528 480.528 232.528C480.836 232.528 481.046 232.57 481.256 232.668L481.004 233.662C480.808 233.606 480.654 233.578 480.388 233.578C479.814 233.578 479.128 233.984 478.666 235.132V239.5H477.504ZM484.979 239.668C483.159 239.668 481.731 238.352 481.731 236.098C481.731 233.886 483.229 232.528 484.783 232.528C486.519 232.528 487.513 233.76 487.513 235.72C487.513 235.972 487.499 236.182 487.457 236.406H482.879C482.977 237.806 483.831 238.73 485.119 238.73C485.777 238.73 486.351 238.548 486.827 238.226L487.233 238.968C486.645 239.388 485.917 239.668 484.979 239.668ZM482.879 235.51H486.477C486.477 234.166 485.847 233.452 484.811 233.452C483.859 233.452 483.019 234.208 482.879 235.51ZM489.18 242.37V232.696H490.132L490.23 233.48H490.272C490.888 232.962 491.658 232.528 492.442 232.528C494.192 232.528 495.144 233.886 495.144 236C495.144 238.31 493.744 239.668 492.19 239.668C491.574 239.668 490.93 239.374 490.314 238.884L490.342 240.074V242.37H489.18ZM491.994 238.688C493.114 238.688 493.94 237.68 493.94 236C493.94 234.502 493.422 233.508 492.148 233.508C491.574 233.508 491 233.816 490.342 234.432V237.988C490.958 238.506 491.546 238.688 491.994 238.688ZM496.946 239.5V232.696H497.898L497.996 233.928H498.038C498.514 233.074 499.214 232.528 499.97 232.528C500.278 232.528 500.488 232.57 500.698 232.668L500.446 233.662C500.25 233.606 500.096 233.578 499.83 233.578C499.256 233.578 498.57 233.984 498.108 235.132V239.5H496.946ZM504.322 239.668C502.656 239.668 501.172 238.366 501.172 236.112C501.172 233.83 502.656 232.528 504.322 232.528C505.988 232.528 507.486 233.83 507.486 236.112C507.486 238.366 505.988 239.668 504.322 239.668ZM504.322 238.702C505.498 238.702 506.282 237.666 506.282 236.112C506.282 234.544 505.498 233.494 504.322 233.494C503.16 233.494 502.376 234.544 502.376 236.112C502.376 237.666 503.16 238.702 504.322 238.702ZM511.952 239.668C510.146 239.668 508.76 238.366 508.76 236.112C508.76 233.83 510.286 232.528 512.036 232.528C512.932 232.528 513.548 232.878 514.024 233.326L513.45 234.054C513.072 233.704 512.638 233.494 512.092 233.494C510.86 233.494 509.964 234.544 509.964 236.112C509.964 237.666 510.804 238.702 512.05 238.702C512.68 238.702 513.24 238.422 513.646 238.058L514.15 238.8C513.534 239.36 512.764 239.668 511.952 239.668ZM518.092 239.668C516.272 239.668 514.844 238.352 514.844 236.098C514.844 233.886 516.342 232.528 517.896 232.528C519.632 232.528 520.626 233.76 520.626 235.72C520.626 235.972 520.612 236.182 520.57 236.406H515.992C516.09 237.806 516.944 238.73 518.232 238.73C518.89 238.73 519.464 238.548 519.94 238.226L520.346 238.968C519.758 239.388 519.03 239.668 518.092 239.668ZM515.992 235.51H519.59C519.59 234.166 518.96 233.452 517.924 233.452C516.972 233.452 516.132 234.208 515.992 235.51ZM524.072 239.668C523.078 239.668 522.168 239.304 521.538 238.688L522.07 238.016C522.658 238.506 523.274 238.758 524.114 238.758C525.01 238.758 525.444 238.296 525.444 237.708C525.444 237.008 524.688 236.714 523.918 236.434C522.896 236.07 521.916 235.58 521.916 234.46C521.916 233.368 522.784 232.528 524.268 232.528C525.122 232.528 525.85 232.85 526.382 233.298L525.85 233.97C525.374 233.62 524.884 233.424 524.282 233.424C523.414 233.424 523.036 233.9 523.036 234.404C523.036 235.02 523.624 235.272 524.478 235.566C525.542 235.944 526.564 236.406 526.564 237.638C526.564 238.744 525.682 239.668 524.072 239.668ZM529.937 239.668C528.943 239.668 528.033 239.304 527.403 238.688L527.935 238.016C528.523 238.506 529.139 238.758 529.979 238.758C530.875 238.758 531.309 238.296 531.309 237.708C531.309 237.008 530.553 236.714 529.783 236.434C528.761 236.07 527.781 235.58 527.781 234.46C527.781 233.368 528.649 232.528 530.133 232.528C530.987 232.528 531.715 232.85 532.247 233.298L531.715 233.97C531.239 233.62 530.749 233.424 530.147 233.424C529.279 233.424 528.901 233.9 528.901 234.404C528.901 235.02 529.489 235.272 530.343 235.566C531.407 235.944 532.429 236.406 532.429 237.638C532.429 238.744 531.547 239.668 529.937 239.668ZM536.768 239.668C534.948 239.668 533.52 238.352 533.52 236.098C533.52 233.886 535.018 232.528 536.572 232.528C538.308 232.528 539.302 233.76 539.302 235.72C539.302 235.972 539.288 236.182 539.246 236.406H534.668C534.766 237.806 535.62 238.73 536.908 238.73C537.566 238.73 538.14 238.548 538.616 238.226L539.022 238.968C538.434 239.388 537.706 239.668 536.768 239.668ZM534.668 235.51H538.266C538.266 234.166 537.636 233.452 536.6 233.452C535.648 233.452 534.808 234.208 534.668 235.51ZM543.293 239.668C541.585 239.668 540.479 238.38 540.479 236.112C540.479 233.9 541.879 232.528 543.433 232.528C544.217 232.528 544.735 232.822 545.337 233.312L545.281 232.15V229.532H546.443V239.5H545.491L545.393 238.702H545.351C544.819 239.22 544.091 239.668 543.293 239.668ZM543.545 238.688C544.175 238.688 544.721 238.38 545.281 237.764V234.208C544.707 233.69 544.189 233.508 543.629 233.508C542.551 233.508 541.683 234.544 541.683 236.098C541.683 237.722 542.355 238.688 543.545 238.688ZM498.409 257.668C496.701 257.668 495.595 256.38 495.595 254.112C495.595 251.9 496.995 250.528 498.549 250.528C499.333 250.528 499.851 250.822 500.453 251.312L500.397 250.15V247.532H501.559V257.5H500.607L500.509 256.702H500.467C499.935 257.22 499.207 257.668 498.409 257.668ZM498.661 256.688C499.291 256.688 499.837 256.38 500.397 255.764V252.208C499.823 251.69 499.305 251.508 498.745 251.508C497.667 251.508 496.799 252.544 496.799 254.098C496.799 255.722 497.471 256.688 498.661 256.688ZM505.418 257.668C504.284 257.668 503.43 256.968 503.43 255.736C503.43 254.224 504.69 253.496 507.602 253.174C507.588 252.32 507.308 251.494 506.202 251.494C505.418 251.494 504.704 251.844 504.172 252.194L503.724 251.41C504.354 250.99 505.306 250.528 506.398 250.528C508.05 250.528 508.764 251.634 508.764 253.314V257.5H507.812L507.7 256.688H507.658C507.014 257.234 506.272 257.668 505.418 257.668ZM505.74 256.716C506.398 256.716 506.944 256.422 507.602 255.848V254C505.306 254.266 504.564 254.784 504.564 255.666C504.564 256.422 505.082 256.716 505.74 256.716ZM512.855 257.668C511.399 257.668 510.909 256.744 510.909 255.386V251.634H509.901V250.766L510.965 250.696L511.105 248.512H512.071V250.696H513.919V251.634H512.071V255.414C512.071 256.24 512.351 256.716 513.121 256.716C513.373 256.716 513.625 256.674 513.905 256.548L514.143 257.374C513.779 257.542 513.317 257.668 512.855 257.668ZM516.725 257.668C515.591 257.668 514.737 256.968 514.737 255.736C514.737 254.224 515.997 253.496 518.909 253.174C518.895 252.32 518.615 251.494 517.509 251.494C516.725 251.494 516.011 251.844 515.479 252.194L515.031 251.41C515.661 250.99 516.613 250.528 517.705 250.528C519.357 250.528 520.071 251.634 520.071 253.314V257.5H519.119L519.007 256.688H518.965C518.321 257.234 517.579 257.668 516.725 257.668ZM517.047 256.716C517.705 256.716 518.251 256.422 518.909 255.848V254C516.613 254.266 515.871 254.784 515.871 255.666C515.871 256.422 516.389 256.716 517.047 256.716Z" fill="#333333"/>
<rect x="222" y="314" width="132" height="64" rx="3" fill="#E9F8FF"/>
<path d="M269.125 350.5V342.31H266.353V341.316H273.087V342.31H270.301V350.5H269.125ZM276.429 350.668C274.609 350.668 273.181 349.352 273.181 347.098C273.181 344.886 274.679 343.528 276.233 343.528C277.969 343.528 278.963 344.76 278.963 346.72C278.963 346.972 278.949 347.182 278.907 347.406H274.329C274.427 348.806 275.281 349.73 276.569 349.73C277.227 349.73 277.801 349.548 278.277 349.226L278.683 349.968C278.095 350.388 277.367 350.668 276.429 350.668ZM274.329 346.51H277.927C277.927 345.166 277.297 344.452 276.261 344.452C275.309 344.452 274.469 345.208 274.329 346.51ZM282.408 350.668C281.414 350.668 280.504 350.304 279.874 349.688L280.406 349.016C280.994 349.506 281.61 349.758 282.45 349.758C283.346 349.758 283.78 349.296 283.78 348.708C283.78 348.008 283.024 347.714 282.254 347.434C281.232 347.07 280.252 346.58 280.252 345.46C280.252 344.368 281.12 343.528 282.604 343.528C283.458 343.528 284.186 343.85 284.718 344.298L284.186 344.97C283.71 344.62 283.22 344.424 282.618 344.424C281.75 344.424 281.372 344.9 281.372 345.404C281.372 346.02 281.96 346.272 282.814 346.566C283.878 346.944 284.9 347.406 284.9 348.638C284.9 349.744 284.018 350.668 282.408 350.668ZM288.364 350.668C286.908 350.668 286.418 349.744 286.418 348.386V344.634H285.41V343.766L286.474 343.696L286.614 341.512H287.58V343.696H289.428V344.634H287.58V348.414C287.58 349.24 287.86 349.716 288.63 349.716C288.882 349.716 289.134 349.674 289.414 349.548L289.652 350.374C289.288 350.542 288.826 350.668 288.364 350.668ZM295.547 350.668C294.553 350.668 293.643 350.304 293.013 349.688L293.545 349.016C294.133 349.506 294.749 349.758 295.589 349.758C296.485 349.758 296.919 349.296 296.919 348.708C296.919 348.008 296.163 347.714 295.393 347.434C294.371 347.07 293.391 346.58 293.391 345.46C293.391 344.368 294.259 343.528 295.743 343.528C296.597 343.528 297.325 343.85 297.857 344.298L297.325 344.97C296.849 344.62 296.359 344.424 295.757 344.424C294.889 344.424 294.511 344.9 294.511 345.404C294.511 346.02 295.099 346.272 295.953 346.566C297.017 346.944 298.039 347.406 298.039 348.638C298.039 349.744 297.157 350.668 295.547 350.668ZM302.378 350.668C300.558 350.668 299.13 349.352 299.13 347.098C299.13 344.886 300.628 343.528 302.182 343.528C303.918 343.528 304.912 344.76 304.912 346.72C304.912 346.972 304.898 347.182 304.856 347.406H300.278C300.376 348.806 301.23 349.73 302.518 349.73C303.176 349.73 303.75 349.548 304.226 349.226L304.632 349.968C304.044 350.388 303.316 350.668 302.378 350.668ZM300.278 346.51H303.876C303.876 345.166 303.246 344.452 302.21 344.452C301.258 344.452 300.418 345.208 300.278 346.51ZM308.585 350.668C307.129 350.668 306.639 349.744 306.639 348.386V344.634H305.631V343.766L306.695 343.696L306.835 341.512H307.801V343.696H309.649V344.634H307.801V348.414C307.801 349.24 308.081 349.716 308.851 349.716C309.103 349.716 309.355 349.674 309.635 349.548L309.873 350.374C309.509 350.542 309.047 350.668 308.585 350.668Z" fill="#333333"/>
<rect x="222" y="386" width="132" height="64" rx="3" fill="#E9F8FF"/>
<path d="M251.242 422.5L248.358 413.316H249.604L251.032 418.272C251.34 419.35 251.578 420.232 251.914 421.296H251.97C252.306 420.232 252.53 419.35 252.852 418.272L254.378 413.316H255.582L252.6 422.5H251.242ZM257.979 422.668C256.845 422.668 255.991 421.968 255.991 420.736C255.991 419.224 257.251 418.496 260.163 418.174C260.149 417.32 259.869 416.494 258.763 416.494C257.979 416.494 257.265 416.844 256.733 417.194L256.285 416.41C256.915 415.99 257.867 415.528 258.959 415.528C260.611 415.528 261.325 416.634 261.325 418.314V422.5H260.373L260.261 421.688H260.219C259.575 422.234 258.833 422.668 257.979 422.668ZM258.301 421.716C258.959 421.716 259.505 421.422 260.163 420.848V419C257.867 419.266 257.125 419.784 257.125 420.666C257.125 421.422 257.643 421.716 258.301 421.716ZM264.683 422.668C263.815 422.668 263.465 422.108 263.465 421.128V412.532H264.627V421.212C264.627 421.576 264.781 421.702 264.963 421.702C265.033 421.702 265.089 421.702 265.201 421.674L265.355 422.542C265.187 422.626 264.977 422.668 264.683 422.668ZM267.034 422.5V415.696H268.196V422.5H267.034ZM267.622 414.296C267.174 414.296 266.852 414.002 266.852 413.54C266.852 413.092 267.174 412.784 267.622 412.784C268.07 412.784 268.392 413.092 268.392 413.54C268.392 414.002 268.07 414.296 267.622 414.296ZM272.817 422.668C271.109 422.668 270.003 421.38 270.003 419.112C270.003 416.9 271.403 415.528 272.957 415.528C273.741 415.528 274.259 415.822 274.861 416.312L274.805 415.15V412.532H275.967V422.5H275.015L274.917 421.702H274.875C274.343 422.22 273.615 422.668 272.817 422.668ZM273.069 421.688C273.699 421.688 274.245 421.38 274.805 420.764V417.208C274.231 416.69 273.713 416.508 273.153 416.508C272.075 416.508 271.207 417.544 271.207 419.098C271.207 420.722 271.879 421.688 273.069 421.688ZM279.826 422.668C278.692 422.668 277.838 421.968 277.838 420.736C277.838 419.224 279.098 418.496 282.01 418.174C281.996 417.32 281.716 416.494 280.61 416.494C279.826 416.494 279.112 416.844 278.58 417.194L278.132 416.41C278.762 415.99 279.714 415.528 280.806 415.528C282.458 415.528 283.172 416.634 283.172 418.314V422.5H282.22L282.108 421.688H282.066C281.422 422.234 280.68 422.668 279.826 422.668ZM280.148 421.716C280.806 421.716 281.352 421.422 282.01 420.848V419C279.714 419.266 278.972 419.784 278.972 420.666C278.972 421.422 279.49 421.716 280.148 421.716ZM287.264 422.668C285.808 422.668 285.318 421.744 285.318 420.386V416.634H284.31V415.766L285.374 415.696L285.514 413.512H286.48V415.696H288.328V416.634H286.48V420.414C286.48 421.24 286.76 421.716 287.53 421.716C287.782 421.716 288.034 421.674 288.314 421.548L288.552 422.374C288.188 422.542 287.726 422.668 287.264 422.668ZM289.866 422.5V415.696H291.028V422.5H289.866ZM290.454 414.296C290.006 414.296 289.684 414.002 289.684 413.54C289.684 413.092 290.006 412.784 290.454 412.784C290.902 412.784 291.224 413.092 291.224 413.54C291.224 414.002 290.902 414.296 290.454 414.296ZM295.971 422.668C294.305 422.668 292.821 421.366 292.821 419.112C292.821 416.83 294.305 415.528 295.971 415.528C297.637 415.528 299.135 416.83 299.135 419.112C299.135 421.366 297.637 422.668 295.971 422.668ZM295.971 421.702C297.147 421.702 297.931 420.666 297.931 419.112C297.931 417.544 297.147 416.494 295.971 416.494C294.809 416.494 294.025 417.544 294.025 419.112C294.025 420.666 294.809 421.702 295.971 421.702ZM300.913 422.5V415.696H301.865L301.963 416.676H302.005C302.649 416.032 303.349 415.528 304.287 415.528C305.729 415.528 306.373 416.452 306.373 418.188V422.5H305.211V418.342C305.211 417.068 304.819 416.536 303.923 416.536C303.237 416.536 302.747 416.886 302.075 417.572V422.5H300.913ZM313.15 422.668C312.156 422.668 311.246 422.304 310.616 421.688L311.148 421.016C311.736 421.506 312.352 421.758 313.192 421.758C314.088 421.758 314.522 421.296 314.522 420.708C314.522 420.008 313.766 419.714 312.996 419.434C311.974 419.07 310.994 418.58 310.994 417.46C310.994 416.368 311.862 415.528 313.346 415.528C314.2 415.528 314.928 415.85 315.46 416.298L314.928 416.97C314.452 416.62 313.962 416.424 313.36 416.424C312.492 416.424 312.114 416.9 312.114 417.404C312.114 418.02 312.702 418.272 313.556 418.566C314.62 418.944 315.642 419.406 315.642 420.638C315.642 421.744 314.76 422.668 313.15 422.668ZM319.981 422.668C318.161 422.668 316.733 421.352 316.733 419.098C316.733 416.886 318.231 415.528 319.785 415.528C321.521 415.528 322.515 416.76 322.515 418.72C322.515 418.972 322.501 419.182 322.459 419.406H317.881C317.979 420.806 318.833 421.73 320.121 421.73C320.779 421.73 321.353 421.548 321.829 421.226L322.235 421.968C321.647 422.388 320.919 422.668 319.981 422.668ZM317.881 418.51H321.479C321.479 417.166 320.849 416.452 319.813 416.452C318.861 416.452 318.021 417.208 317.881 418.51ZM326.187 422.668C324.731 422.668 324.241 421.744 324.241 420.386V416.634H323.233V415.766L324.297 415.696L324.437 413.512H325.403V415.696H327.251V416.634H325.403V420.414C325.403 421.24 325.683 421.716 326.453 421.716C326.705 421.716 326.957 421.674 327.237 421.548L327.475 422.374C327.111 422.542 326.649 422.668 326.187 422.668Z" fill="#333333"/>
<path d="M130 208H217" stroke="#019CB2" stroke-width="2"/>
<path d="M222 207.999C222 207.999 212 213 212 213L213.999 207.999L212 203C212 203 222 207.999 222 207.999Z" fill="#019CB2"/>
<path d="M130 346H217" stroke="#019CB2" stroke-width="2"/>
<path d="M222 345.999C222 345.999 212 351 212 351L213.999 345.999L212 341C212 341 222 345.999 222 345.999Z" fill="#019CB2"/>
<path d="M354 208H441" stroke="#019CB2" stroke-width="2"/>
<path d="M446 207.999C446 207.999 436 213 436 213L437.999 207.999L436 203C436 203 446 207.999 446 207.999Z" fill="#019CB2"/>
<path d="M570 238H657" stroke="#019CB2" stroke-width="2"/>
<path d="M662 237.999C662 237.999 652 243 652 243L653.999 237.999L652 233C652 233 662 237.999 662 237.999Z" fill="#019CB2"/>
<path d="M354 346H441" stroke="#019CB2" stroke-width="2"/>
<path d="M446 345.999C446 345.999 436 351 436 351L437.999 345.999L436 341C436 341 446 345.999 446 345.999Z" fill="#019CB2"/>
<path d="M130 418H217" stroke="#019CB2" stroke-width="2"/>
<path d="M222 417.999C222 417.999 212 423 212 423L213.999 417.999L212 413C212 413 222 417.999 222 417.999Z" fill="#019CB2"/>
<path d="M354 418H657" stroke="#019CB2" stroke-width="2"/>
<path d="M662 417.999C662 417.999 652 423 652 423L653.999 417.999L652 413C652 413 662 417.999 662 417.999Z" fill="#019CB2"/>
<rect x="662" y="110" width="100" height="340" rx="3" fill="#E9F8FF"/>
<path d="M684.221 284.5V275.316H685.691L687.427 280.23C687.651 280.874 687.847 281.462 688.043 282.148H688.099C688.309 281.462 688.477 280.874 688.701 280.23L690.437 275.316H691.907V284.5H690.801V279.432C690.801 278.62 690.899 277.486 690.969 276.688H690.913L690.199 278.83L688.477 283.576H687.623L685.915 278.83L685.187 276.688H685.131C685.201 277.486 685.299 278.62 685.299 279.432V284.5H684.221ZM694.406 284.5V275.316H695.582V283.506H699.586V284.5H694.406ZM699.777 281.434V280.538H702.997V281.434H699.777ZM704.699 284.5V277.696H705.651L705.749 278.676H705.791C706.393 278.032 707.093 277.528 707.905 277.528C708.955 277.528 709.515 278.018 709.795 278.816C710.495 278.06 711.209 277.528 712.035 277.528C713.435 277.528 714.107 278.452 714.107 280.188V284.5H712.945V280.342C712.945 279.068 712.539 278.536 711.685 278.536C711.153 278.536 710.607 278.872 709.977 279.572V284.5H708.815V280.342C708.815 279.068 708.423 278.536 707.555 278.536C707.051 278.536 706.491 278.872 705.861 279.572V284.5H704.699ZM718.952 284.668C717.286 284.668 715.802 283.366 715.802 281.112C715.802 278.83 717.286 277.528 718.952 277.528C720.618 277.528 722.116 278.83 722.116 281.112C722.116 283.366 720.618 284.668 718.952 284.668ZM718.952 283.702C720.128 283.702 720.912 282.666 720.912 281.112C720.912 279.544 720.128 278.494 718.952 278.494C717.79 278.494 717.006 279.544 717.006 281.112C717.006 282.666 717.79 283.702 718.952 283.702ZM726.218 284.668C724.51 284.668 723.404 283.38 723.404 281.112C723.404 278.9 724.804 277.528 726.358 277.528C727.142 277.528 727.66 277.822 728.262 278.312L728.206 277.15V274.532H729.368V284.5H728.416L728.318 283.702H728.276C727.744 284.22 727.016 284.668 726.218 284.668ZM726.47 283.688C727.1 283.688 727.646 283.38 728.206 282.764V279.208C727.632 278.69 727.114 278.508 726.554 278.508C725.476 278.508 724.608 279.544 724.608 281.098C724.608 282.722 725.28 283.688 726.47 283.688ZM734.404 284.668C732.584 284.668 731.156 283.352 731.156 281.098C731.156 278.886 732.654 277.528 734.208 277.528C735.944 277.528 736.938 278.76 736.938 280.72C736.938 280.972 736.924 281.182 736.882 281.406H732.304C732.402 282.806 733.256 283.73 734.544 283.73C735.202 283.73 735.776 283.548 736.252 283.226L736.658 283.968C736.07 284.388 735.342 284.668 734.404 284.668ZM732.304 280.51H735.902C735.902 279.166 735.272 278.452 734.236 278.452C733.284 278.452 732.444 279.208 732.304 280.51ZM739.823 284.668C738.955 284.668 738.605 284.108 738.605 283.128V274.532H739.767V283.212C739.767 283.576 739.921 283.702 740.103 283.702C740.173 283.702 740.229 283.702 740.341 283.674L740.495 284.542C740.327 284.626 740.117 284.668 739.823 284.668Z" fill="#333333"/>
<path d="M161.864 60V50.816H164.16C166.988 50.816 168.5 52.454 168.5 55.366C168.5 58.292 166.988 60 164.216 60H161.864ZM163.04 59.034H164.076C166.218 59.034 167.282 57.69 167.282 55.366C167.282 53.056 166.218 51.782 164.076 51.782H163.04V59.034ZM171.947 60.168C170.813 60.168 169.959 59.468 169.959 58.236C169.959 56.724 171.219 55.996 174.131 55.674C174.117 54.82 173.837 53.994 172.731 53.994C171.947 53.994 171.233 54.344 170.701 54.694L170.253 53.91C170.883 53.49 171.835 53.028 172.927 53.028C174.579 53.028 175.293 54.134 175.293 55.814V60H174.341L174.229 59.188H174.187C173.543 59.734 172.801 60.168 171.947 60.168ZM172.269 59.216C172.927 59.216 173.473 58.922 174.131 58.348V56.5C171.835 56.766 171.093 57.284 171.093 58.166C171.093 58.922 171.611 59.216 172.269 59.216ZM179.385 60.168C177.929 60.168 177.439 59.244 177.439 57.886V54.134H176.431V53.266L177.495 53.196L177.635 51.012H178.601V53.196H180.449V54.134H178.601V57.914C178.601 58.74 178.881 59.216 179.651 59.216C179.903 59.216 180.155 59.174 180.435 59.048L180.673 59.874C180.309 60.042 179.847 60.168 179.385 60.168ZM183.254 60.168C182.12 60.168 181.266 59.468 181.266 58.236C181.266 56.724 182.526 55.996 185.438 55.674C185.424 54.82 185.144 53.994 184.038 53.994C183.254 53.994 182.54 54.344 182.008 54.694L181.56 53.91C182.19 53.49 183.142 53.028 184.234 53.028C185.886 53.028 186.6 54.134 186.6 55.814V60H185.648L185.536 59.188H185.494C184.85 59.734 184.108 60.168 183.254 60.168ZM183.576 59.216C184.234 59.216 184.78 58.922 185.438 58.348V56.5C183.142 56.766 182.4 57.284 182.4 58.166C182.4 58.922 182.918 59.216 183.576 59.216ZM151.404 78.168C150.41 78.168 149.5 77.804 148.87 77.188L149.402 76.516C149.99 77.006 150.606 77.258 151.446 77.258C152.342 77.258 152.776 76.796 152.776 76.208C152.776 75.508 152.02 75.214 151.25 74.934C150.228 74.57 149.248 74.08 149.248 72.96C149.248 71.868 150.116 71.028 151.6 71.028C152.454 71.028 153.182 71.35 153.714 71.798L153.182 72.47C152.706 72.12 152.216 71.924 151.614 71.924C150.746 71.924 150.368 72.4 150.368 72.904C150.368 73.52 150.956 73.772 151.81 74.066C152.874 74.444 153.896 74.906 153.896 76.138C153.896 77.244 153.014 78.168 151.404 78.168ZM157.059 78.168C155.925 78.168 155.071 77.468 155.071 76.236C155.071 74.724 156.331 73.996 159.243 73.674C159.229 72.82 158.949 71.994 157.843 71.994C157.059 71.994 156.345 72.344 155.813 72.694L155.365 71.91C155.995 71.49 156.947 71.028 158.039 71.028C159.691 71.028 160.405 72.134 160.405 73.814V78H159.453L159.341 77.188H159.299C158.655 77.734 157.913 78.168 157.059 78.168ZM157.381 77.216C158.039 77.216 158.585 76.922 159.243 76.348V74.5C156.947 74.766 156.205 75.284 156.205 76.166C156.205 76.922 156.723 77.216 157.381 77.216ZM162.545 78V71.196H163.497L163.595 72.176H163.637C164.239 71.532 164.939 71.028 165.751 71.028C166.801 71.028 167.361 71.518 167.641 72.316C168.341 71.56 169.055 71.028 169.881 71.028C171.281 71.028 171.953 71.952 171.953 73.688V78H170.791V73.842C170.791 72.568 170.385 72.036 169.531 72.036C168.999 72.036 168.453 72.372 167.823 73.072V78H166.661V73.842C166.661 72.568 166.269 72.036 165.401 72.036C164.897 72.036 164.337 72.372 163.707 73.072V78H162.545ZM174.153 80.87V71.196H175.105L175.203 71.98H175.245C175.861 71.462 176.631 71.028 177.415 71.028C179.165 71.028 180.117 72.386 180.117 74.5C180.117 76.81 178.717 78.168 177.163 78.168C176.547 78.168 175.903 77.874 175.287 77.384L175.315 78.574V80.87H174.153ZM176.967 77.188C178.087 77.188 178.913 76.18 178.913 74.5C178.913 73.002 178.395 72.008 177.121 72.008C176.547 72.008 175.973 72.316 175.315 72.932V76.488C175.931 77.006 176.519 77.188 176.967 77.188ZM183.137 78.168C182.269 78.168 181.919 77.608 181.919 76.628V68.032H183.081V76.712C183.081 77.076 183.235 77.202 183.417 77.202C183.487 77.202 183.543 77.202 183.655 77.174L183.809 78.042C183.641 78.126 183.431 78.168 183.137 78.168ZM185.487 78V71.196H186.649V78H185.487ZM186.075 69.796C185.627 69.796 185.305 69.502 185.305 69.04C185.305 68.592 185.627 68.284 186.075 68.284C186.523 68.284 186.845 68.592 186.845 69.04C186.845 69.502 186.523 69.796 186.075 69.796ZM188.946 78V71.196H189.898L189.996 72.176H190.038C190.682 71.532 191.382 71.028 192.32 71.028C193.762 71.028 194.406 71.952 194.406 73.688V78H193.244V73.842C193.244 72.568 192.852 72.036 191.956 72.036C191.27 72.036 190.78 72.386 190.108 73.072V78H188.946ZM198.898 81.136C197.232 81.136 196.084 80.478 196.084 79.302C196.084 78.728 196.462 78.182 197.078 77.762V77.706C196.742 77.496 196.476 77.132 196.476 76.6C196.476 76.026 196.868 75.578 197.218 75.34V75.284C196.77 74.92 196.336 74.262 196.336 73.45C196.336 71.966 197.512 71.028 198.898 71.028C199.276 71.028 199.612 71.098 199.864 71.196H202.23V72.092H200.844C201.166 72.4 201.39 72.904 201.39 73.478C201.39 74.934 200.284 75.844 198.898 75.844C198.562 75.844 198.198 75.76 197.89 75.606C197.638 75.816 197.456 76.04 197.456 76.418C197.456 76.838 197.736 77.146 198.646 77.146H199.962C201.544 77.146 202.342 77.65 202.342 78.77C202.342 80.044 201.012 81.136 198.898 81.136ZM198.898 75.06C199.682 75.06 200.34 74.444 200.34 73.45C200.34 72.47 199.696 71.868 198.898 71.868C198.1 71.868 197.456 72.456 197.456 73.45C197.456 74.444 198.114 75.06 198.898 75.06ZM199.066 80.324C200.354 80.324 201.208 79.652 201.208 78.952C201.208 78.322 200.732 78.112 199.836 78.112H198.674C198.408 78.112 198.086 78.084 197.792 78C197.302 78.35 197.092 78.756 197.092 79.148C197.092 79.876 197.834 80.324 199.066 80.324Z" fill="#333333"/>
<path d="M384.864 69V59.816H387.16C389.988 59.816 391.5 61.454 391.5 64.366C391.5 67.292 389.988 69 387.216 69H384.864ZM386.04 68.034H387.076C389.218 68.034 390.282 66.69 390.282 64.366C390.282 62.056 389.218 60.782 387.076 60.782H386.04V68.034ZM394.947 69.168C393.813 69.168 392.959 68.468 392.959 67.236C392.959 65.724 394.219 64.996 397.131 64.674C397.117 63.82 396.837 62.994 395.731 62.994C394.947 62.994 394.233 63.344 393.701 63.694L393.253 62.91C393.883 62.49 394.835 62.028 395.927 62.028C397.579 62.028 398.293 63.134 398.293 64.814V69H397.341L397.229 68.188H397.187C396.543 68.734 395.801 69.168 394.947 69.168ZM395.269 68.216C395.927 68.216 396.473 67.922 397.131 67.348V65.5C394.835 65.766 394.093 66.284 394.093 67.166C394.093 67.922 394.611 68.216 395.269 68.216ZM402.385 69.168C400.929 69.168 400.439 68.244 400.439 66.886V63.134H399.431V62.266L400.495 62.196L400.635 60.012H401.601V62.196H403.449V63.134H401.601V66.914C401.601 67.74 401.881 68.216 402.651 68.216C402.903 68.216 403.155 68.174 403.435 68.048L403.673 68.874C403.309 69.042 402.847 69.168 402.385 69.168ZM406.254 69.168C405.12 69.168 404.266 68.468 404.266 67.236C404.266 65.724 405.526 64.996 408.438 64.674C408.424 63.82 408.144 62.994 407.038 62.994C406.254 62.994 405.54 63.344 405.008 63.694L404.56 62.91C405.19 62.49 406.142 62.028 407.234 62.028C408.886 62.028 409.6 63.134 409.6 64.814V69H408.648L408.536 68.188H408.494C407.85 68.734 407.108 69.168 406.254 69.168ZM406.576 68.216C407.234 68.216 407.78 67.922 408.438 67.348V65.5C406.142 65.766 405.4 66.284 405.4 67.166C405.4 67.922 405.918 68.216 406.576 68.216ZM358.414 89.87V80.196H359.366L359.464 80.98H359.506C360.122 80.462 360.892 80.028 361.676 80.028C363.426 80.028 364.378 81.386 364.378 83.5C364.378 85.81 362.978 87.168 361.424 87.168C360.808 87.168 360.164 86.874 359.548 86.384L359.576 87.574V89.87H358.414ZM361.228 86.188C362.348 86.188 363.174 85.18 363.174 83.5C363.174 82.002 362.656 81.008 361.382 81.008C360.808 81.008 360.234 81.316 359.576 81.932V85.488C360.192 86.006 360.78 86.188 361.228 86.188ZM366.179 87V80.196H367.131L367.229 81.428H367.271C367.747 80.574 368.447 80.028 369.203 80.028C369.511 80.028 369.721 80.07 369.931 80.168L369.679 81.162C369.483 81.106 369.329 81.078 369.063 81.078C368.489 81.078 367.803 81.484 367.341 82.632V87H366.179ZM373.654 87.168C371.834 87.168 370.406 85.852 370.406 83.598C370.406 81.386 371.904 80.028 373.458 80.028C375.194 80.028 376.188 81.26 376.188 83.22C376.188 83.472 376.174 83.682 376.132 83.906H371.554C371.652 85.306 372.506 86.23 373.794 86.23C374.452 86.23 375.026 86.048 375.502 85.726L375.908 86.468C375.32 86.888 374.592 87.168 373.654 87.168ZM371.554 83.01H375.152C375.152 81.666 374.522 80.952 373.486 80.952C372.534 80.952 371.694 81.708 371.554 83.01ZM377.855 89.87V80.196H378.807L378.905 80.98H378.947C379.563 80.462 380.333 80.028 381.117 80.028C382.867 80.028 383.819 81.386 383.819 83.5C383.819 85.81 382.419 87.168 380.865 87.168C380.249 87.168 379.605 86.874 378.989 86.384L379.017 87.574V89.87H377.855ZM380.669 86.188C381.789 86.188 382.615 85.18 382.615 83.5C382.615 82.002 382.097 81.008 380.823 81.008C380.249 81.008 379.675 81.316 379.017 81.932V85.488C379.633 86.006 380.221 86.188 380.669 86.188ZM385.621 87V80.196H386.573L386.671 81.428H386.713C387.189 80.574 387.889 80.028 388.645 80.028C388.953 80.028 389.163 80.07 389.373 80.168L389.121 81.162C388.925 81.106 388.771 81.078 388.505 81.078C387.931 81.078 387.245 81.484 386.783 82.632V87H385.621ZM392.997 87.168C391.331 87.168 389.847 85.866 389.847 83.612C389.847 81.33 391.331 80.028 392.997 80.028C394.663 80.028 396.161 81.33 396.161 83.612C396.161 85.866 394.663 87.168 392.997 87.168ZM392.997 86.202C394.173 86.202 394.957 85.166 394.957 83.612C394.957 82.044 394.173 80.994 392.997 80.994C391.835 80.994 391.051 82.044 391.051 83.612C391.051 85.166 391.835 86.202 392.997 86.202ZM400.627 87.168C398.821 87.168 397.435 85.866 397.435 83.612C397.435 81.33 398.961 80.028 400.711 80.028C401.607 80.028 402.223 80.378 402.699 80.826L402.125 81.554C401.747 81.204 401.313 80.994 400.767 80.994C399.535 80.994 398.639 82.044 398.639 83.612C398.639 85.166 399.479 86.202 400.725 86.202C401.355 86.202 401.915 85.922 402.321 85.558L402.825 86.3C402.209 86.86 401.439 87.168 400.627 87.168ZM406.767 87.168C404.947 87.168 403.519 85.852 403.519 83.598C403.519 81.386 405.017 80.028 406.571 80.028C408.307 80.028 409.301 81.26 409.301 83.22C409.301 83.472 409.287 83.682 409.245 83.906H404.667C404.765 85.306 405.619 86.23 406.907 86.23C407.565 86.23 408.139 86.048 408.615 85.726L409.021 86.468C408.433 86.888 407.705 87.168 406.767 87.168ZM404.667 83.01H408.265C408.265 81.666 407.635 80.952 406.599 80.952C405.647 80.952 404.807 81.708 404.667 83.01ZM412.746 87.168C411.752 87.168 410.842 86.804 410.212 86.188L410.744 85.516C411.332 86.006 411.948 86.258 412.788 86.258C413.684 86.258 414.118 85.796 414.118 85.208C414.118 84.508 413.362 84.214 412.592 83.934C411.57 83.57 410.59 83.08 410.59 81.96C410.59 80.868 411.458 80.028 412.942 80.028C413.796 80.028 414.524 80.35 415.056 80.798L414.524 81.47C414.048 81.12 413.558 80.924 412.956 80.924C412.088 80.924 411.71 81.4 411.71 81.904C411.71 82.52 412.298 82.772 413.152 83.066C414.216 83.444 415.238 83.906 415.238 85.138C415.238 86.244 414.356 87.168 412.746 87.168ZM418.612 87.168C417.618 87.168 416.708 86.804 416.078 86.188L416.61 85.516C417.198 86.006 417.814 86.258 418.654 86.258C419.55 86.258 419.984 85.796 419.984 85.208C419.984 84.508 419.228 84.214 418.458 83.934C417.436 83.57 416.456 83.08 416.456 81.96C416.456 80.868 417.324 80.028 418.808 80.028C419.662 80.028 420.39 80.35 420.922 80.798L420.39 81.47C419.914 81.12 419.424 80.924 418.822 80.924C417.954 80.924 417.576 81.4 417.576 81.904C417.576 82.52 418.164 82.772 419.018 83.066C420.082 83.444 421.104 83.906 421.104 85.138C421.104 86.244 420.222 87.168 418.612 87.168ZM422.699 87V80.196H423.861V87H422.699ZM423.287 78.796C422.839 78.796 422.517 78.502 422.517 78.04C422.517 77.592 422.839 77.284 423.287 77.284C423.735 77.284 424.057 77.592 424.057 78.04C424.057 78.502 423.735 78.796 423.287 78.796ZM426.158 87V80.196H427.11L427.208 81.176H427.25C427.894 80.532 428.594 80.028 429.532 80.028C430.974 80.028 431.618 80.952 431.618 82.688V87H430.456V82.842C430.456 81.568 430.064 81.036 429.168 81.036C428.482 81.036 427.992 81.386 427.32 82.072V87H426.158ZM436.11 90.136C434.444 90.136 433.296 89.478 433.296 88.302C433.296 87.728 433.674 87.182 434.29 86.762V86.706C433.954 86.496 433.688 86.132 433.688 85.6C433.688 85.026 434.08 84.578 434.43 84.34V84.284C433.982 83.92 433.548 83.262 433.548 82.45C433.548 80.966 434.724 80.028 436.11 80.028C436.488 80.028 436.824 80.098 437.076 80.196H439.442V81.092H438.056C438.378 81.4 438.602 81.904 438.602 82.478C438.602 83.934 437.496 84.844 436.11 84.844C435.774 84.844 435.41 84.76 435.102 84.606C434.85 84.816 434.668 85.04 434.668 85.418C434.668 85.838 434.948 86.146 435.858 86.146H437.174C438.756 86.146 439.554 86.65 439.554 87.77C439.554 89.044 438.224 90.136 436.11 90.136ZM436.11 84.06C436.894 84.06 437.552 83.444 437.552 82.45C437.552 81.47 436.908 80.868 436.11 80.868C435.312 80.868 434.668 81.456 434.668 82.45C434.668 83.444 435.326 84.06 436.11 84.06ZM436.278 89.324C437.566 89.324 438.42 88.652 438.42 87.952C438.42 87.322 437.944 87.112 437.048 87.112H435.886C435.62 87.112 435.298 87.084 435.004 87C434.514 87.35 434.304 87.756 434.304 88.148C434.304 88.876 435.046 89.324 436.278 89.324Z" fill="#333333"/>
<path d="M593.293 229V220.81H590.521V219.816H597.255V220.81H594.469V229H593.293ZM598.14 229V222.196H599.092L599.19 223.428H599.232C599.708 222.574 600.408 222.028 601.164 222.028C601.472 222.028 601.682 222.07 601.892 222.168L601.64 223.162C601.444 223.106 601.29 223.078 601.024 223.078C600.45 223.078 599.764 223.484 599.302 224.632V229H598.14ZM604.234 229.168C603.1 229.168 602.246 228.468 602.246 227.236C602.246 225.724 603.506 224.996 606.418 224.674C606.404 223.82 606.124 222.994 605.018 222.994C604.234 222.994 603.52 223.344 602.988 223.694L602.54 222.91C603.17 222.49 604.122 222.028 605.214 222.028C606.866 222.028 607.58 223.134 607.58 224.814V229H606.628L606.516 228.188H606.474C605.83 228.734 605.088 229.168 604.234 229.168ZM604.556 228.216C605.214 228.216 605.76 227.922 606.418 227.348V225.5C604.122 225.766 603.38 226.284 603.38 227.166C603.38 227.922 603.898 228.216 604.556 228.216ZM609.72 229V222.196H610.882V229H609.72ZM610.308 220.796C609.86 220.796 609.538 220.502 609.538 220.04C609.538 219.592 609.86 219.284 610.308 219.284C610.756 219.284 611.078 219.592 611.078 220.04C611.078 220.502 610.756 220.796 610.308 220.796ZM613.179 229V222.196H614.131L614.229 223.176H614.271C614.915 222.532 615.615 222.028 616.553 222.028C617.995 222.028 618.639 222.952 618.639 224.688V229H617.477V224.842C617.477 223.568 617.085 223.036 616.189 223.036C615.503 223.036 615.013 223.386 614.341 224.072V229H613.179ZM620.836 229V222.196H621.998V229H620.836ZM621.424 220.796C620.976 220.796 620.654 220.502 620.654 220.04C620.654 219.592 620.976 219.284 621.424 219.284C621.872 219.284 622.194 219.592 622.194 220.04C622.194 220.502 621.872 220.796 621.424 220.796ZM624.294 229V222.196H625.246L625.344 223.176H625.386C626.03 222.532 626.73 222.028 627.668 222.028C629.11 222.028 629.754 222.952 629.754 224.688V229H628.592V224.842C628.592 223.568 628.2 223.036 627.304 223.036C626.618 223.036 626.128 223.386 625.456 224.072V229H624.294ZM634.247 232.136C632.581 232.136 631.433 231.478 631.433 230.302C631.433 229.728 631.811 229.182 632.427 228.762V228.706C632.091 228.496 631.825 228.132 631.825 227.6C631.825 227.026 632.217 226.578 632.567 226.34V226.284C632.119 225.92 631.685 225.262 631.685 224.45C631.685 222.966 632.861 222.028 634.247 222.028C634.625 222.028 634.961 222.098 635.213 222.196H637.579V223.092H636.193C636.515 223.4 636.739 223.904 636.739 224.478C636.739 225.934 635.633 226.844 634.247 226.844C633.911 226.844 633.547 226.76 633.239 226.606C632.987 226.816 632.805 227.04 632.805 227.418C632.805 227.838 633.085 228.146 633.995 228.146H635.311C636.893 228.146 637.691 228.65 637.691 229.77C637.691 231.044 636.361 232.136 634.247 232.136ZM634.247 226.06C635.031 226.06 635.689 225.444 635.689 224.45C635.689 223.47 635.045 222.868 634.247 222.868C633.449 222.868 632.805 223.456 632.805 224.45C632.805 225.444 633.463 226.06 634.247 226.06ZM634.415 231.324C635.703 231.324 636.557 230.652 636.557 229.952C636.557 229.322 636.081 229.112 635.185 229.112H634.023C633.757 229.112 633.435 229.084 633.141 229C632.651 229.35 632.441 229.756 632.441 230.148C632.441 230.876 633.183 231.324 634.415 231.324Z" fill="#333333"/>
<path d="M487.795 408.168C485.499 408.168 483.791 406.404 483.791 403.408C483.791 400.454 485.527 398.648 487.865 398.648C488.985 398.648 489.853 399.18 490.399 399.782L489.755 400.51C489.265 400.006 488.663 399.684 487.879 399.684C486.157 399.684 485.009 401.098 485.009 403.38C485.009 405.69 486.101 407.132 487.837 407.132C488.719 407.132 489.377 406.782 489.965 406.138L490.609 406.838C489.867 407.692 488.971 408.168 487.795 408.168ZM492.209 408V398.032H493.371V400.748L493.329 402.148C493.959 401.532 494.645 401.028 495.583 401.028C497.025 401.028 497.669 401.952 497.669 403.688V408H496.507V403.842C496.507 402.568 496.115 402.036 495.219 402.036C494.533 402.036 494.043 402.386 493.371 403.072V408H492.209ZM502.568 408.168C500.748 408.168 499.32 406.852 499.32 404.598C499.32 402.386 500.818 401.028 502.372 401.028C504.108 401.028 505.102 402.26 505.102 404.22C505.102 404.472 505.088 404.682 505.046 404.906H500.468C500.566 406.306 501.42 407.23 502.708 407.23C503.366 407.23 503.94 407.048 504.416 406.726L504.822 407.468C504.234 407.888 503.506 408.168 502.568 408.168ZM500.468 404.01H504.066C504.066 402.666 503.436 401.952 502.4 401.952C501.448 401.952 500.608 402.708 500.468 404.01ZM509.457 408.168C507.651 408.168 506.265 406.866 506.265 404.612C506.265 402.33 507.791 401.028 509.541 401.028C510.437 401.028 511.053 401.378 511.529 401.826L510.955 402.554C510.577 402.204 510.143 401.994 509.597 401.994C508.365 401.994 507.469 403.044 507.469 404.612C507.469 406.166 508.309 407.202 509.555 407.202C510.185 407.202 510.745 406.922 511.151 406.558L511.655 407.3C511.039 407.86 510.269 408.168 509.457 408.168ZM513.154 408V398.032H514.302V404.752H514.344L517.214 401.196H518.516L516.248 403.94L518.81 408H517.55L515.562 404.738L514.302 406.208V408H513.154Z" fill="#333333"/>
<path d="M130 40V448" stroke="#BAC0CF" stroke-dasharray="4 4"/>
<path d="M222 40V448" stroke="#BAC0CF" stroke-dasharray="4 4"/>
<path d="M354 40V379" stroke="#BAC0CF" stroke-dasharray="4 4"/>
<path d="M446 40V379" stroke="#BAC0CF" stroke-dasharray="4 4"/>
</svg>
